HIERARCHY
ROOT Hips
{
	OFFSET 0.000000 0.000000 0.000000
	CHANNELS 6 Xposition Yposition Zposition Zrotation Yrotation Xrotation 
	JOINT LHipJoint
	{
		OFFSET 0.000000 0.000000 0.000000
		CHANNELS 3 Zrotation Yrotation Xrotation
		JOINT LeftUpLeg
		{
			OFFSET 1.363060 -1.794630 0.839290
			CHANNELS 3 Zrotation Yrotation Xrotation
			JOINT LeftLeg
			{
				OFFSET 2.448110 -6.726130 0.000000
				CHANNELS 3 Zrotation Yrotation Xrotation
				JOINT LeftFoot
				{
					OFFSET 2.562200 -7.039590 0.000000
					CHANNELS 3 Zrotation Yrotation Xrotation
					JOINT LeftToeBase
					{
						OFFSET 0.157640 -0.433110 2.322550
						CHANNELS 3 Zrotation Yrotation Xrotation
						End Site
						{
							OFFSET 0.000000 0.000000 0.000000
						}
					}
				}
			}
		}
	}
	JOINT RHipJoint
	{
		OFFSET 0.000000 0.000000 0.000000
		CHANNELS 3 Zrotation Yrotation Xrotation
		JOINT RightUpLeg
		{
			OFFSET -1.305520 -1.794630 0.839290
			CHANNELS 3 Zrotation Yrotation Xrotation
			JOINT RightLeg
			{
				OFFSET -2.542530 -6.985550 0.000000
				CHANNELS 3 Zrotation Yrotation Xrotation
				JOINT RightFoot
				{
					OFFSET -2.568260 -7.056230 0.000000
					CHANNELS 3 Zrotation Yrotation Xrotation
					JOINT RightToeBase
					{
						OFFSET -0.164730 -0.452590 2.363150
						CHANNELS 3 Zrotation Yrotation Xrotation
						End Site
						{
							OFFSET 0.000000 0.000000 0.000000
						}
					}
				}
			}
		}
	}
	JOINT LowerBack
	{
		OFFSET 0.000000 0.000000 0.000000
		CHANNELS 3 Zrotation Yrotation Xrotation
		JOINT Spine
		{
			OFFSET 0.028270 2.035590 -0.193380
			CHANNELS 3 Zrotation Yrotation Xrotation
			JOINT Spine1
			{
				OFFSET 0.056720 2.048850 -0.042750
				CHANNELS 3 Zrotation Yrotation Xrotation
				JOINT Neck
				{
					OFFSET 0.000000 0.000000 0.000000
					CHANNELS 3 Zrotation Yrotation Xrotation
					JOINT Neck1
					{
						OFFSET -0.054170 1.746240 0.172020
						CHANNELS 3 Zrotation Yrotation Xrotation
						JOINT Head
						{
							OFFSET 0.104070 1.761360 -0.123970
							CHANNELS 3 Zrotation Yrotation Xrotation
							End Site
							{
								OFFSET 0.000000 0.000000 0.000000
							}
						}
					}
				}
				JOINT LeftShoulder
				{
					OFFSET 0.000000 0.000000 0.000000
					CHANNELS 3 Zrotation Yrotation Xrotation
					JOINT LeftArm
					{
						OFFSET 3.362410 1.200890 -0.311210
						CHANNELS 3 Zrotation Yrotation Xrotation
						JOINT LeftForeArm
						{
							OFFSET 4.983000 -0.000000 -0.000000
							CHANNELS 3 Zrotation Yrotation Xrotation
							JOINT LeftHand
							{
								OFFSET 3.483560 -0.000000 -0.000000
								CHANNELS 3 Zrotation Yrotation Xrotation
								JOINT LeftFingerBase
								{
									OFFSET 0.000000 0.000000 0.000000
									CHANNELS 3 Zrotation Yrotation Xrotation
									JOINT LeftHandIndex1
									{
										OFFSET 0.715260 -0.000000 -0.000000
										CHANNELS 3 Zrotation Yrotation Xrotation
										End Site
										{
											OFFSET 0.000000 0.000000 0.000000
										}
									}
								}
								JOINT LThumb
								{
									OFFSET 0.000000 0.000000 0.000000
									CHANNELS 3 Zrotation Yrotation Xrotation
									End Site
									{
										OFFSET 0.000000 0.000000 0.000000
									}
								}
							}
						}
					}
				}
				JOINT RightShoulder
				{
					OFFSET 0.000000 0.000000 0.000000
					CHANNELS 3 Zrotation Yrotation Xrotation
					JOINT RightArm
					{
						OFFSET -3.136600 1.374050 -0.404650
						CHANNELS 3 Zrotation Yrotation Xrotation
						JOINT RightForeArm
						{
							OFFSET -5.241900 -0.000000 -0.000000
							CHANNELS 3 Zrotation Yrotation Xrotation
							JOINT RightHand
							{
								OFFSET -3.444170 -0.000000 -0.000000
								CHANNELS 3 Zrotation Yrotation Xrotation
								JOINT RightFingerBase
								{
									OFFSET 0.000000 0.000000 0.000000
									CHANNELS 3 Zrotation Yrotation Xrotation
									JOINT RightHandIndex1
									{
										OFFSET -0.622530 -0.000000 -0.000000
										CHANNELS 3 Zrotation Yrotation Xrotation
										End Site
										{
											OFFSET 0.000000 0.000000 0.000000
										}
									}
								}
								JOINT RThumb
								{
									OFFSET 0.000000 0.000000 0.000000
									CHANNELS 3 Zrotation Yrotation Xrotation
									End Site
									{
										OFFSET 0.000000 0.000000 0.000000
									}
								}
							}
						}
					}
				}
			}
		}
	}
}
MOTION
Frames: 7
Frame Time: 0.008333
10.438292 17.193806 2.409263 5.504401 -14.582086 -2.041711 -4.182757 1.717862 3.103783 -6.378390 -0.069000 -20.492240 4.925214 13.324496 41.191505 -1.484848 9.790701 -9.866799 1.720300 -8.257500 -23.498900 1.405345 -2.167867 2.471970 -0.071355 13.622969 -33.844423 -6.013403 -12.644514 42.570248 0.239433 -3.185799 1.922021 -0.039100 1.276400 -3.509600 -5.856773 -2.086194 11.884209 1.024134 -3.250260 9.911046 1.978157 -1.777653 -2.632343 -2.069074 -0.796860 -8.117795 3.865031 -1.041315 -1.102511 1.154000 -0.573200 2.276300 -1.930199 -1.775282 0.067358 -76.916538 6.982445 15.777826 43.313553 -45.649215 -20.941669 0.362543 -1.473520 -19.797026 27.977354 14.114375 8.289200 -7.125000 0.000000 0.000000 0.443300 47.770600 0.030300 0.767555 1.521126 -0.152482 84.048093 -16.608198 -15.260458 -19.426663 28.209047 -4.776314 0.340038 -0.293365 -25.166153 -7.286420 24.529298 -3.163300 7.125000 0.000000 0.000000 13.434400 -5.431900 12.457600 
10.448687 17.161551 2.461532 5.758154 -14.691955 -2.358885 -4.151579 1.713446 3.091288 -6.549345 0.074878 -20.778780 5.254454 13.631283 42.441288 -1.344640 9.117523 -9.439123 1.692900 -8.194800 -23.307400 1.375522 -2.183990 2.458426 0.190968 13.907273 -33.407593 -6.055038 -12.679464 42.737186 0.421193 -5.369663 0.592508 -0.009800 0.639400 -1.757000 -6.023112 -2.052930 11.332238 0.726989 -3.202434 10.041049 1.914090 -1.795322 -2.161271 -2.154426 -0.882350 -8.411057 4.201959 -1.131159 -0.751300 1.279400 -0.600800 2.451500 -1.854806 -1.811723 0.111771 -75.699984 6.461211 15.686624 44.176794 -46.175070 -21.608387 0.401873 -1.462371 -21.619006 27.908701 14.847470 8.633100 -7.125000 0.000000 0.000000 0.279000 48.568600 0.024600 0.753129 1.550300 -0.155226 84.099507 -16.258585 -15.521939 -19.486916 28.286155 -4.804425 0.357709 -0.261205 -24.235475 -9.207256 23.515793 -3.846400 7.125000 0.000000 0.000000 12.226200 -6.253100 11.083300 
10.464038 17.141245 2.507098 5.521409 -14.870021 -2.596903 -4.077867 1.724531 3.075482 -6.179026 0.195892 -21.067011 5.588183 13.954184 43.693628 -1.245786 8.601987 -8.885738 1.648600 -8.092300 -22.994800 1.343501 -2.201931 2.429381 0.898230 14.525279 -32.840541 -6.094873 -12.664399 42.832241 0.537539 -6.537442 -0.439946 -0.000100 0.077700 -0.213500 -5.847246 -1.980870 11.149947 0.816353 -3.085205 9.971611 1.879992 -1.734777 -2.103500 -2.183537 -0.895441 -8.346700 4.095800 -1.157756 -0.536661 1.255900 -0.614100 2.509400 -1.809106 -1.829941 0.144891 -74.854578 6.164852 15.562400 45.060996 -46.689924 -22.312269 0.447965 -1.457749 -23.081654 27.621609 15.769861 8.985500 -7.125000 0.000000 0.000000 -0.156600 49.546300 -0.017600 0.729771 1.559890 -0.157026 83.911308 -16.262457 -15.709510 -19.588770 28.425358 -4.857800 0.351050 -0.243794 -23.503465 -9.645590 22.561773 -3.875500 7.125000 0.000000 0.000000 11.932700 -7.167400 10.588900 
10.490464 17.115596 2.545863 5.050766 -15.103056 -2.639808 -3.993826 1.738612 3.049948 -5.573996 0.170207 -21.395731 5.910113 14.262003 44.882593 -1.200023 8.330554 -8.314578 1.685500 -8.177700 -23.255000 1.314110 -2.221879 2.402692 1.763615 15.124996 -32.462874 -6.136790 -12.639352 42.916155 0.652687 -7.632801 -1.107019 -0.008700 0.602900 -1.656800 -5.538489 -2.045490 11.149419 1.034402 -3.144125 9.689607 1.879038 -1.739610 -2.297924 -2.151450 -0.701870 -8.125902 3.966685 -0.917794 -0.402867 1.222300 -0.497500 2.507500 -1.769760 -1.825671 0.174312 -74.024231 6.180300 15.225139 45.765924 -47.099838 -22.854853 0.463609 -1.444394 -24.182593 27.936968 16.166576 9.300100 -7.125000 0.000000 0.000000 0.100600 50.030300 0.012500 0.705370 1.563362 -0.155908 83.326472 -16.377079 -14.733980 -19.588693 28.419839 -4.865047 0.322873 -0.241966 -24.003520 -8.314234 21.899683 -3.242100 7.125000 0.000000 0.000000 12.767900 -7.959800 11.165100 
10.519125 17.072459 2.592401 4.942882 -15.287467 -2.817359 -3.942166 1.744204 3.033411 -5.337746 0.053000 -21.575859 6.228885 14.538429 46.044435 -1.083191 7.723608 -7.854574 1.700500 -8.212300 -23.360700 1.290486 -2.231879 2.383056 2.129813 15.550245 -31.992993 -6.178803 -12.658066 43.068480 0.763448 -8.650409 -2.073942 -0.067900 1.680800 -4.624200 -5.428674 -2.131166 11.002460 1.063234 -3.242558 9.524845 1.869382 -1.786589 -2.293701 -2.535977 -0.617835 -8.246713 4.280661 -0.761799 -0.131418 1.396400 -0.411800 2.620000 -1.725288 -1.825122 0.205036 -73.165400 6.097203 14.843595 46.277409 -47.400631 -23.232386 0.472288 -1.429662 -24.987573 28.206605 16.623040 9.628700 -7.125000 0.000000 0.000000 0.301900 50.569600 0.041400 0.688315 1.579677 -0.150757 82.743025 -16.287267 -13.713154 -19.490598 28.276976 -4.816134 0.319339 -0.234553 -24.431010 -8.216508 21.512973 -3.149700 7.125000 0.000000 0.000000 12.828300 -8.354500 11.118100 
10.545260 17.017858 2.630680 4.817127 -15.469377 -3.192743 -3.889255 1.757703 3.032842 -5.012515 -0.090574 -21.516659 6.526557 14.793932 47.124793 -0.892690 6.722835 -7.376209 1.573300 -7.914000 -22.453300 1.266770 -2.237093 2.349793 2.434536 16.197610 -31.210822 -6.233125 -12.688068 43.272009 0.874348 -9.632255 -3.070800 -0.125800 2.286000 -6.296700 -5.179165 -2.035839 10.981175 1.132517 -3.089691 9.466897 1.762058 -1.704773 -2.326306 -3.046568 -0.729669 -8.127800 4.464481 -0.866623 -0.017028 1.539100 -0.467000 2.641100 -1.690827 -1.834403 0.229787 -72.558079 5.885300 14.677194 46.887507 -47.734705 -23.721448 0.500484 -1.420980 -25.345716 27.859831 17.457853 9.893800 -7.125000 0.000000 0.000000 -0.222700 51.424500 -0.035200 0.671455 1.587121 -0.148607 82.465963 -16.310262 -13.692652 -19.453560 28.229875 -4.792575 0.331868 -0.255419 -24.038338 -8.498029 22.554879 -3.408500 7.125000 0.000000 0.000000 12.658600 -7.284200 11.236300 
10.579556 16.966462 2.660604 4.869990 -15.745203 -3.733350 -3.856834 1.772680 3.041451 -4.859144 -0.426154 -21.211438 6.803675 15.014462 48.109522 -0.756120 5.946799 -6.792671 1.300400 -7.224500 -20.382100 1.248345 -2.241881 2.320147 2.400068 16.916798 -30.378498 -6.286166 -12.729150 43.488422 0.931193 -10.136028 -3.815956 -0.129200 2.316900 -6.382200 -5.093856 -1.876347 11.068754 1.133714 -2.876586 9.498702 1.706262 -1.596258 -2.362009 -3.012722 -0.698173 -7.708558 4.137709 -0.854683 -0.128909 1.430400 -0.475900 2.525800 -1.655710 -1.859312 0.251017 -71.990195 5.637279 14.558144 47.417166 -48.017817 -24.145074 0.517612 -1.411001 -25.525378 27.720677 18.085026 10.133000 -7.125000 0.000000 0.000000 -0.506100 52.081300 -0.088200 0.654060 1.579670 -0.155503 82.331705 -16.379253 -13.811631 -19.602589 28.434297 -4.868771 0.323117 -0.280366 -23.517528 -7.809478 23.335251 -3.232400 7.125000 0.000000 0.000000 13.100100 -6.570000 11.836600 
